HIERARCHY
ROOT Hips
{
	OFFSET 0.000000 103.266502 0.000000
	CHANNELS 6 Xposition Yposition Zposition Xrotation Yrotation Zrotation 
	JOINT Spine
	{
		OFFSET -0.002400 12.777504 0.315300
		CHANNELS 3 Xrotation Yrotation Zrotation
		JOINT Spine1
		{
			OFFSET -0.002067 5.816869 0.032633
			CHANNELS 3 Xrotation Yrotation Zrotation
			JOINT Spine1_split
			{
				OFFSET -0.002067 5.816869 0.032633
				CHANNELS 3 Xrotation Yrotation Zrotation
				JOINT Spine2
				{
					OFFSET -0.002067 5.816869 0.032633
					CHANNELS 3 Xrotation Yrotation Zrotation
					JOINT Neck
					{
						OFFSET -0.003700 21.199493 -0.826900
						CHANNELS 3 Xrotation Yrotation Zrotation
						JOINT Head
						{
							OFFSET 0.000000 20.442200 4.834800
							CHANNELS 3 Xrotation Yrotation Zrotation
							JOINT HeadTop_End
							{
								OFFSET 0.000000 34.668396 4.968400
								CHANNELS 3 Xrotation Yrotation Zrotation
								End Site
								{
									OFFSET 0.000000 0.000000 0.000000
								}
							}
						}
					}
					JOINT LeftShoulder
					{
						OFFSET 3.288150 8.794197 -1.372250
						CHANNELS 3 Xrotation Yrotation Zrotation
						JOINT LeftShoulder_split
						{
							OFFSET 3.288150 8.794197 -1.372250
							CHANNELS 3 Xrotation Yrotation Zrotation
							JOINT LeftArm
							{
								OFFSET 11.953299 -2.279007 -0.146200
								CHANNELS 3 Xrotation Yrotation Zrotation
								JOINT LeftForeArm
								{
									OFFSET 18.448900 0.000000 0.000000
									CHANNELS 3 Xrotation Yrotation Zrotation
									JOINT LeftHand
									{
										OFFSET 29.527798 0.000000 0.000000
										CHANNELS 3 Xrotation Yrotation Zrotation
										JOINT LeftHandThumb1
										{
											OFFSET 10.739754 -2.369614 9.225399
											CHANNELS 3 Xrotation Yrotation Zrotation
											JOINT LeftHandThumb2
											{
												OFFSET 4.926170 -2.844131 2.844125
												CHANNELS 3 Xrotation Yrotation Zrotation
												JOINT LeftHandThumb3
												{
													OFFSET 4.614891 -2.664413 2.664409
													CHANNELS 3 Xrotation Yrotation Zrotation
													JOINT LeftHandThumb4
													{
														OFFSET 4.432465 -2.559082 2.559083
														CHANNELS 3 Xrotation Yrotation Zrotation
														End Site
														{
															OFFSET 0.000000 0.000000 0.000000
														}
													}
												}
											}
										}
										JOINT LeftHandIndex1
										{
											OFFSET 26.467674 0.187653 6.405298
											CHANNELS 3 Xrotation Yrotation Zrotation
											JOINT LeftHandIndex2
											{
												OFFSET 8.792900 0.000000 0.000000
												CHANNELS 3 Xrotation Yrotation Zrotation
												JOINT LeftHandIndex3
												{
													OFFSET 10.075203 0.000000 0.000000
													CHANNELS 3 Xrotation Yrotation Zrotation
													End Site
													{
														OFFSET 0.000000 0.000000 0.000000
													}
												}
											}
										}
										JOINT LeftHandMiddle1
										{
											OFFSET 25.764404 0.000000 0.000000
											CHANNELS 3 Xrotation Yrotation Zrotation
											JOINT LeftHandMiddle2
											{
												OFFSET 9.393974 0.000000 0.000000
												CHANNELS 3 Xrotation Yrotation Zrotation
												JOINT LeftHandMiddle3
												{
													OFFSET 10.771950 0.000000 0.000000
													CHANNELS 3 Xrotation Yrotation Zrotation
													End Site
													{
														OFFSET 0.000000 0.000000 0.000000
													}
												}
											}
										}
										JOINT LeftHandRing1
										{
											OFFSET 24.660927 0.144547 -6.225808
											CHANNELS 3 Xrotation Yrotation Zrotation
											JOINT LeftHandRing2
											{
												OFFSET 9.393799 0.000000 0.000000
												CHANNELS 3 Xrotation Yrotation Zrotation
												JOINT LeftHandRing3
												{
													OFFSET 9.928497 0.000000 0.000000
													CHANNELS 3 Xrotation Yrotation Zrotation
													End Site
													{
														OFFSET 0.000000 0.000000 0.000000
													}
												}
											}
										}
										JOINT LeftHandPinky1
										{
											OFFSET 23.655350 0.125290 -12.815412
											CHANNELS 3 Xrotation Yrotation Zrotation
											JOINT LeftHandPinky2
											{
												OFFSET 8.425102 0.000000 0.000000
												CHANNELS 3 Xrotation Yrotation Zrotation
												JOINT LeftHandPinky3
												{
													OFFSET 8.147003 0.000000 0.000000
													CHANNELS 3 Xrotation Yrotation Zrotation
													End Site
													{
														OFFSET 0.000000 0.000000 0.000000
													}
												}
											}
										}
									}
								}
							}
						}
					}
					JOINT RightShoulder
					{
						OFFSET -3.249400 8.794197 -1.372250
						CHANNELS 3 Xrotation Yrotation Zrotation
						JOINT RightShoulder_split
						{
							OFFSET -3.249400 8.794197 -1.372250
							CHANNELS 3 Xrotation Yrotation Zrotation
							JOINT RightArm
							{
								OFFSET -11.953299 -2.279007 -0.146200
								CHANNELS 3 Xrotation Yrotation Zrotation
								JOINT RightForeArm
								{
									OFFSET -18.448900 0.000000 0.000000
									CHANNELS 3 Xrotation Yrotation Zrotation
									JOINT RightHand
									{
										OFFSET -29.527802 0.000000 0.000000
										CHANNELS 3 Xrotation Yrotation Zrotation
										JOINT RightHandThumb1
										{
											OFFSET -10.739754 -2.369614 9.225399
											CHANNELS 3 Xrotation Yrotation Zrotation
											JOINT RightHandThumb2
											{
												OFFSET -4.926170 -2.844131 2.844125
												CHANNELS 3 Xrotation Yrotation Zrotation
												JOINT RightHandThumb3
												{
													OFFSET -4.614891 -2.664413 2.664409
													CHANNELS 3 Xrotation Yrotation Zrotation
													JOINT RightHandThumb4
													{
														OFFSET -4.432465 -2.559082 2.559083
														CHANNELS 3 Xrotation Yrotation Zrotation
														End Site
														{
															OFFSET 0.000000 0.000000 0.000000
														}
													}
												}
											}
										}
										JOINT RightHandIndex1
										{
											OFFSET -26.467674 0.187653 6.405298
											CHANNELS 3 Xrotation Yrotation Zrotation
											JOINT RightHandIndex2
											{
												OFFSET -8.792900 0.000000 0.000000
												CHANNELS 3 Xrotation Yrotation Zrotation
												JOINT RightHandIndex3
												{
													OFFSET -10.075203 0.000000 0.000000
													CHANNELS 3 Xrotation Yrotation Zrotation
													End Site
													{
														OFFSET 0.000000 0.000000 0.000000
													}
												}
											}
										}
										JOINT RightHandMiddle1
										{
											OFFSET -25.764404 0.000000 0.000000
											CHANNELS 3 Xrotation Yrotation Zrotation
											JOINT RightHandMiddle2
											{
												OFFSET -9.393974 0.000000 0.000000
												CHANNELS 3 Xrotation Yrotation Zrotation
												JOINT RightHandMiddle3
												{
													OFFSET -10.771950 0.000000 0.000000
													CHANNELS 3 Xrotation Yrotation Zrotation
													End Site
													{
														OFFSET 0.000000 0.000000 0.000000
													}
												}
											}
										}
										JOINT RightHandRing1
										{
											OFFSET -24.660927 0.144547 -6.225808
											CHANNELS 3 Xrotation Yrotation Zrotation
											JOINT RightHandRing2
											{
												OFFSET -9.393799 0.000000 0.000000
												CHANNELS 3 Xrotation Yrotation Zrotation
												JOINT RightHandRing3
												{
													OFFSET -9.928497 0.000000 0.000000
													CHANNELS 3 Xrotation Yrotation Zrotation
													End Site
													{
														OFFSET 0.000000 0.000000 0.000000
													}
												}
											}
										}
										JOINT RightHandPinky1
										{
											OFFSET -23.655350 0.125290 -12.815412
											CHANNELS 3 Xrotation Yrotation Zrotation
											JOINT RightHandPinky2
											{
												OFFSET -8.425102 0.000000 0.000000
												CHANNELS 3 Xrotation Yrotation Zrotation
												JOINT RightHandPinky3
												{
													OFFSET -8.147003 0.000000 0.000000
													CHANNELS 3 Xrotation Yrotation Zrotation
													End Site
													{
														OFFSET 0.000000 0.000000 0.000000
													}
												}
											}
										}
									}
								}
							}
						}
					}
				}
			}
		}
	}
	JOINT LeftUpLeg
	{
		OFFSET 11.394100 -6.187798 -0.413800
		CHANNELS 3 Xrotation Yrotation Zrotation
		JOINT LeftLeg
		{
			OFFSET 0.430247 -32.302673 3.732800
			CHANNELS 3 Xrotation Yrotation Zrotation
			JOINT LeftFoot
			{
				OFFSET -0.430247 -48.264931 -6.423300
				CHANNELS 3 Xrotation Yrotation Zrotation
				JOINT LeftToeBase
				{
					OFFSET 4.230900 -16.068199 23.438400
					CHANNELS 3 Xrotation Yrotation Zrotation
					JOINT LeftToe_End
					{
						OFFSET 4.510700 0.695400 19.974600
						CHANNELS 3 Xrotation Yrotation Zrotation
						End Site
						{
							OFFSET 0.000000 0.000000 0.000000
						}
					}
				}
			}
		}
	}
	JOINT RightUpLeg
	{
		OFFSET -11.333700 -6.187798 -0.413800
		CHANNELS 3 Xrotation Yrotation Zrotation
		JOINT RightLeg
		{
			OFFSET -0.430392 -32.302628 3.733000
			CHANNELS 3 Xrotation Yrotation Zrotation
			JOINT RightFoot
			{
				OFFSET 0.430392 -48.264973 -6.423500
				CHANNELS 3 Xrotation Yrotation Zrotation
				JOINT RightToeBase
				{
					OFFSET -4.230900 -16.068199 23.438400
					CHANNELS 3 Xrotation Yrotation Zrotation
					JOINT RightToe_End
					{
						OFFSET -4.510700 0.695400 19.974600
						CHANNELS 3 Xrotation Yrotation Zrotation
						End Site
						{
							OFFSET 0.000000 0.000000 0.000000
						}
					}
				}
			}
		}
	}
}
MOTION
Frames: 4
Frame Time: 0.016667
3.106596 92.762306 -32.959373 17.406143 0.491475 -0.767259 0.295110 -0.517789 0.794554 0.653933 -1.830908 -1.052587 0.000000 0.000000 0.000000 0.655741 -1.831694 -1.049994 -2.996390 1.119226 0.316272 -6.032486 6.098675 -0.632911 0.000001 0.000000 -0.000000 0.085451 3.935089 -2.580512 0.000000 0.000000 0.000000 -56.776234 -47.958802 -86.499599 0.000416 -99.510057 0.000396 30.651451 -40.355824 1.595617 -1.514518 3.689237 6.142661 3.939057 7.948703 0.746813 -0.579459 1.574994 2.538715 -0.000001 0.000000 0.000001 -0.000001 -0.000056 0.000435 0.000007 0.000002 -0.000002 0.000001 0.000000 -0.000000 -0.000001 -0.001984 0.016432 0.000008 0.001947 -0.015978 -0.000000 -0.000001 -0.000000 -0.000001 -0.000055 0.000438 0.000001 -0.000006 -0.000003 -0.000000 -0.000000 -0.000003 -0.018123 4.054202 0.511504 -0.018086 -4.054236 -0.511064 -0.000000 -0.000000 -0.000001 0.341128 -4.421370 7.505367 0.000000 0.000000 0.000000 11.665821 -24.096279 54.698443 -0.000005 14.091797 -0.000005 26.699604 -41.006881 9.432750 -1.738589 -3.581797 -6.586133 4.637203 -8.634133 -0.225404 -1.273765 0.137300 -2.094870 -0.000000 0.000000 -0.000000 0.000002 0.000002 0.000003 0.000001 -0.000000 -0.000000 -0.000002 0.000000 0.000001 -0.000004 -0.000000 -0.000003 -0.000002 -0.000006 -0.000001 -0.000001 0.000000 -0.000000 0.000003 0.000003 0.000002 0.000001 0.000002 -0.000001 -0.000001 0.000000 -0.000000 0.000002 0.000003 0.000003 -0.000002 0.000001 0.000023 -0.000001 0.000000 0.000000 -50.102709 12.129498 -2.541355 52.739941 11.554205 -9.629141 -16.333477 28.233362 9.546873 -12.056856 -0.000019 -0.000004 -0.000000 0.000002 -0.000000 -4.266703 -3.993864 11.143715 22.964831 -10.761340 0.922975 -30.612348 -10.735468 -9.980123 -15.090272 0.000001 -0.000001 -0.000000 -0.000000 -0.000000 
3.241337 91.718987 -33.912544 17.859363 -1.025209 -0.631664 0.384694 -0.420556 0.913466 0.839426 -1.490122 -1.004999 0.000000 0.000000 0.000000 0.841787 -1.490087 -1.003032 -3.381184 1.278225 -0.024141 -7.092505 6.514983 -1.017365 0.000001 -0.000000 -0.000000 0.066344 4.092693 -2.749983 0.000000 0.000000 0.000000 -57.966839 -48.075133 -87.079803 -0.000068 -99.827087 -0.000066 31.096591 -40.241555 3.113304 -1.513108 3.689495 6.142575 3.939058 7.948701 0.746812 -0.579459 1.574995 2.538703 0.000000 -0.000000 -0.000000 -0.000003 -0.000034 0.000305 0.000006 0.000000 -0.000006 -0.000001 -0.000000 0.000001 -0.000002 -0.001965 0.016287 0.000006 0.001945 -0.015971 -0.000000 -0.000000 0.000003 -0.000003 -0.000034 0.000304 0.000001 -0.000006 -0.000007 -0.000001 -0.000000 -0.000002 -0.018113 4.054217 0.511371 -0.018088 -4.054234 -0.511062 -0.000000 -0.000001 0.000001 0.357819 -4.128329 7.237575 0.000000 0.000000 0.000000 10.151495 -21.429737 54.766526 -0.000000 14.120294 0.000009 21.523121 -41.883307 3.636423 -1.739457 -3.581785 -6.586155 4.637203 -8.634134 -0.225404 -1.273761 0.137300 -2.094870 0.000002 -0.000000 -0.000000 -0.000009 -0.000000 -0.000001 -0.000001 -0.000001 -0.000001 -0.000002 -0.000000 0.000002 -0.000002 -0.000001 0.000005 -0.000000 -0.000005 -0.000002 0.000001 -0.000000 -0.000000 -0.000009 -0.000000 -0.000001 -0.000001 0.000002 -0.000001 0.000000 -0.000000 -0.000001 -0.000008 0.000000 0.000001 -0.000003 0.000002 0.000023 -0.000002 0.000000 0.000002 -51.130417 12.410004 -2.249527 53.259059 12.002466 -9.525800 -19.147768 27.684874 10.850639 -11.716900 0.000010 -0.000005 -0.000000 -0.000001 -0.000000 -3.701206 -3.071841 11.748264 21.006544 -10.250746 -0.028564 -33.403429 -9.229071 -10.876837 -9.268066 0.000005 -0.000001 -0.000000 0.000002 -0.000000 
3.370332 91.040863 -34.658749 18.241991 -2.494652 -0.407037 0.495856 -0.325730 1.006426 1.063926 -1.195067 -0.944049 0.000000 0.000000 0.000000 1.066425 -1.193946 -0.942641 -3.717272 1.476828 -0.421960 -7.822805 7.031212 -1.337922 0.000001 -0.000000 -0.000000 0.049190 4.276956 -3.011938 0.000000 0.000000 0.000000 -58.871156 -48.137305 -87.986818 0.000133 -99.805060 0.000116 31.520684 -40.160904 4.450586 -1.511684 3.689917 6.142454 3.939058 7.948703 0.746816 -0.579459 1.574995 2.538711 0.000000 0.000001 -0.000002 -0.000001 -0.000020 0.000132 0.000007 0.000000 -0.000002 0.000001 0.000001 -0.000000 -0.000001 -0.001947 0.016118 0.000007 0.001948 -0.015971 0.000000 0.000001 0.000001 -0.000003 -0.000022 0.000134 0.000002 -0.000006 -0.000006 -0.000000 0.000002 -0.000002 -0.018097 4.054236 0.511193 -0.018086 -4.054236 -0.511063 -0.000001 -0.000001 -0.000001 0.384399 -3.724217 6.943322 0.000000 0.000000 0.000000 8.764608 -19.063041 55.509945 0.000004 13.884451 0.000013 18.001006 -41.050253 -0.615188 -1.740320 -3.581776 -6.586144 4.637207 -8.634133 -0.225405 -1.273765 0.137301 -2.094874 -0.000000 0.000000 -0.000000 -0.000002 0.000003 -0.000000 0.000001 0.000001 0.000001 -0.000002 -0.000001 -0.000001 -0.000014 0.000015 -0.000013 -0.000000 -0.000004 -0.000001 0.000000 -0.000000 -0.000001 -0.000001 0.000003 0.000000 0.000001 0.000002 -0.000002 -0.000001 0.000001 -0.000003 -0.000001 0.000002 0.000001 0.000000 0.000001 0.000023 0.000001 0.000000 0.000001 -51.724910 12.764959 -1.901213 53.372543 12.546120 -9.427994 -21.100500 27.104378 11.645652 -11.979458 -0.000009 -0.000000 -0.000000 0.000001 0.000000 -4.226605 -2.466830 11.807138 20.850208 -9.962095 -0.759797 -34.983484 -7.872885 -10.543823 -5.939072 -0.000002 -0.000003 -0.000001 0.000000 -0.000000 
3.440138 90.897102 -35.110935 18.508426 -3.654714 -0.112386 0.610425 -0.281635 0.999421 1.276140 -1.018729 -0.918998 0.000000 0.000000 0.000000 1.278432 -1.016637 -0.918154 -3.909943 1.673040 -0.755794 -7.960284 7.572397 -1.496248 -0.000000 -0.000000 0.000000 0.039474 4.456465 -3.348967 0.000000 0.000000 0.000000 -59.308636 -48.121200 -89.167252 0.000115 -99.399545 0.000117 32.005348 -40.115108 5.419650 -1.510258 3.690284 6.142323 3.939056 7.948702 0.746813 -0.579459 1.574995 2.538716 0.000001 0.000000 -0.000002 0.000000 0.000007 -0.000056 0.000006 0.000002 -0.000003 -0.000000 0.000000 -0.000001 0.000002 -0.001924 0.015929 0.000008 0.001946 -0.015966 0.000001 -0.000001 0.000003 0.000001 0.000008 -0.000053 0.000003 -0.000006 -0.000008 0.000001 -0.000000 -0.000002 -0.018084 4.054264 0.511013 -0.018088 -4.054234 -0.511062 0.000000 0.000001 -0.000004 0.415922 -3.288744 6.675626 0.000000 0.000000 0.000000 7.596408 -17.110589 56.723488 -0.000002 13.340019 -0.000001 17.398824 -38.577820 -1.820658 -1.741184 -3.581795 -6.586146 4.637199 -8.634134 -0.225409 -1.273766 0.137301 -2.094874 -0.000001 0.000000 0.000000 -0.000007 -0.000001 -0.000007 -0.000000 0.000001 0.000002 0.000000 0.000001 0.000000 0.000001 0.000001 -0.000003 -0.000001 -0.000006 -0.000002 -0.000001 0.000002 -0.000001 -0.000008 -0.000003 -0.000007 0.000003 0.000003 -0.000002 0.000001 -0.000000 -0.000001 -0.000006 -0.000001 -0.000008 0.000002 0.000000 0.000025 -0.000001 -0.000002 0.000001 -51.770358 13.110322 -1.634011 52.932511 12.973624 -9.353224 -21.830278 26.688109 11.914073 -12.554446 -0.000001 -0.000008 -0.000000 -0.000002 -0.000000 -5.188978 -2.121469 11.583434 21.504296 -9.880219 -1.247086 -35.229412 -7.084166 -9.618671 -5.112070 0.000005 -0.000000 -0.000000 -0.000000 0.000000 
